# xmcd
#
# Track frame offsets:
#	150
#	14227
#	27360
#	41927
#	55489
#	67985
#	80777
#	92720
#	105642
#	119947
#	135245
#	149747
#	163615
#	176730
#	203165
#	218812
#	231615
#	243240
#	255327
#	269202
#	282457
#	296410
#
# Disc length: 4114 seconds
#
# Revision: 1
# Processed by: cddbd v1.5PL3 Copyright (c) Steve Scherf et al.
# Submitted via: audiograbber 1.83.01
#
DISCID=68101016
DTITLE=Joe Mc Coy and Memphis Minnie - The Story Of Kansas Joe 
DYEAR=1900
DGENRE=
TTITLE0=That will be alright
TTITLE1=She wouldn't give me none
TTITLE2=Don't want no woman
TTITLE3=I called you this morning
TTITLE4=Pile drivin' blues
TTITLE5=She put me outdoors
TTITLE6=Shake Mattie
TTITLE7=My wash women's gone
TTITLE8=Let's go to town
TTITLE9=I got to have a little more
TTITLE10=Evil devil woman blues
TTITLE11=Going back home blues
TTITLE12=Meat cuter blues
TTITLE13=You got to move - part I and II
TTITLE14=Give it to me in my hand
TTITLE15=Look who's coming down the road
TTITLE16=I'm through with you
TTITLE17=When you said goodbye
TTITLE18=we can't agree
TTITLE19=It ain't no lie
TTITLE20=Come over and see me
TTITLE21=You money can't buy me
EXTD=
EXTT0=
EXTT1=
EXTT2=
EXTT3=
EXTT4=
EXTT5=
EXTT6=
EXTT7=
EXTT8=
EXTT9=
EXTT10=
EXTT11=
EXTT12=
EXTT13=
EXTT14=
EXTT15=
EXTT16=
EXTT17=
EXTT18=
EXTT19=
EXTT20=
EXTT21=
PLAYORDER=
